<svg xmlns="http://www.w3.org/2000/svg" xmlns:xlink="http://www.w3.org/1999/xlink" width="500" zoomAndPan="magnify" viewBox="0 0 375 374.999991" height="500" preserveAspectRatio="xMidYMid meet" version="1.0"><defs><clipPath id="2c9afda30d"><path d="M 141 52.792969 L 216 52.792969 L 216 86 L 141 86 Z M 141 52.792969 " clip-rule="nonzero"/></clipPath><clipPath id="ea8753efae"><path d="M 70.382812 194 L 105 194 L 105 227 L 70.382812 227 Z M 70.382812 194 " clip-rule="nonzero"/></clipPath><clipPath id="14559892d0"><path d="M 165 275 L 192 275 L 192 311.542969 L 165 311.542969 Z M 165 275 " clip-rule="nonzero"/></clipPath><clipPath id="a7e3c42a44"><path d="M 252 194 L 286.382812 194 L 286.382812 227 L 252 227 Z M 252 194 " clip-rule="nonzero"/></clipPath><clipPath id="e8c994700d"><path d="M 126.257812 123.890625 L 223 123.890625 L 223 186 L 126.257812 186 Z M 126.257812 123.890625 " clip-rule="nonzero"/></clipPath><clipPath id="db5e73042b"><path d="M 173 142 L 230.507812 142 L 230.507812 184 L 173 184 Z M 173 142 " clip-rule="nonzero"/></clipPath><clipPath id="476e570ad5"><path d="M 130 177 L 221 177 L 221 225.140625 L 130 225.140625 Z M 130 177 " clip-rule="nonzero"/></clipPath><clipPath id="6d7a73d654"><path d="M 164.808594 225 L 191.808594 225 L 191.808594 251.179688 L 164.808594 251.179688 Z M 164.808594 225 " clip-rule="nonzero"/></clipPath><clipPath id="342e5417fb"><path d="M 164.808594 224.929688 L 191.808594 224.929688 L 191.808594 251.179688 L 164.808594 251.179688 Z M 164.808594 224.929688 " clip-rule="nonzero"/></clipPath></defs><path fill="#00bf63" d="M 220.175781 104.035156 L 136.585938 104.035156 C 136.585938 104.035156 133.554688 123.429688 111.144531 126.460938 L 111.144531 189.503906 C 111.144531 243.1875 178.382812 274.101562 178.382812 274.101562 C 178.382812 274.101562 245.617188 243.1875 245.617188 189.503906 L 245.617188 126.460938 C 223.203125 123.429688 220.175781 104.035156 220.175781 104.035156 Z M 239.625 189.503906 C 239.625 233.109375 190.179688 261.300781 178.378906 267.402344 C 173.1875 264.722656 160.730469 257.785156 148.449219 247.191406 C 139.230469 239.238281 131.914062 230.808594 126.703125 222.136719 C 120.359375 211.570312 117.140625 200.589844 117.140625 189.5 L 117.140625 131.386719 C 127.671875 128.625 133.816406 122.496094 137.226562 117.488281 C 139.0625 114.789062 140.285156 112.171875 141.085938 110.03125 L 215.675781 110.03125 C 216.480469 112.171875 217.703125 114.789062 219.539062 117.488281 C 222.945312 122.492188 229.089844 128.625 239.625 131.386719 Z M 239.625 189.503906 " fill-opacity="1" fill-rule="nonzero"/><g clip-path="url(#2c9afda30d)"><path fill="#00bf63" d="M 151.363281 85.003906 L 205.398438 85.003906 C 205.398438 85.003906 212.769531 80.125 214.902344 69.140625 C 216.609375 60.371094 211.058594 52.828125 211.058594 52.828125 L 210.316406 59.375 L 213.195312 64.960938 C 213.195312 64.960938 211.753906 63.148438 209.777344 63.203125 C 209.777344 63.203125 209.9375 66.089844 212.074219 67.199219 C 212.074219 67.199219 208.65625 66.808594 207.800781 69.363281 C 206.949219 71.914062 209.242188 71.96875 209.242188 71.96875 C 209.242188 71.96875 207.910156 70.304688 209.351562 69.472656 C 210.792969 68.640625 211.546875 70.136719 210.316406 72.746094 C 209.085938 75.355469 206.789062 77.90625 204.972656 78.015625 C 203.9375 78.078125 203.40625 77.171875 203.140625 76.378906 C 204 76.226562 204.652344 75.453125 204.652344 74.519531 C 204.652344 73.480469 203.839844 72.632812 202.835938 72.632812 C 201.835938 72.632812 201.019531 73.480469 201.019531 74.519531 C 201.019531 75.457031 201.679688 76.230469 202.539062 76.378906 C 202.195312 77.105469 201.527344 77.925781 200.273438 78.015625 C 197.976562 78.183594 196.644531 73.1875 196.964844 71.746094 C 197.285156 70.304688 199.3125 70.191406 199.417969 71.46875 C 199.417969 71.46875 200.167969 69.914062 198.832031 69.359375 C 198.058594 69.039062 197.449219 69.238281 197.070312 69.464844 C 197.691406 68.914062 198.796875 67.695312 199.097656 65.808594 C 199.097656 65.808594 197.070312 65.921875 196.003906 67.972656 L 197.175781 63.867188 L 194.828125 59.210938 L 192.476562 63.871094 L 193.652344 67.976562 C 192.585938 65.921875 190.554688 65.8125 190.554688 65.8125 C 190.855469 67.699219 191.960938 68.914062 192.582031 69.464844 C 192.203125 69.242188 191.59375 69.042969 190.820312 69.363281 C 189.488281 69.917969 190.234375 71.472656 190.234375 71.472656 C 190.339844 70.195312 192.371094 70.304688 192.691406 71.75 C 193.011719 73.191406 191.675781 78.183594 189.378906 78.019531 C 188.113281 77.925781 187.449219 77.09375 187.105469 76.363281 C 187.917969 76.175781 188.527344 75.421875 188.527344 74.523438 C 188.527344 73.480469 187.714844 72.636719 186.710938 72.636719 C 185.707031 72.636719 184.894531 73.480469 184.894531 74.523438 C 184.894531 75.4375 185.519531 76.199219 186.347656 76.371094 C 185.96875 77.09375 185.269531 77.902344 184.039062 77.964844 C 181.796875 78.074219 179.609375 69.972656 180.621094 67.3125 C 181.636719 64.648438 184.746094 66.589844 183.566406 68.699219 C 183.566406 68.699219 185.054688 68.53125 185.160156 66.367188 C 185.253906 64.488281 182.929688 63.320312 181.304688 64.136719 C 181.863281 63.648438 182.640625 62.804688 183.078125 61.597656 C 183.078125 61.597656 181.15625 61.152344 179.660156 62.984375 L 181.476562 58.042969 L 178.382812 52.828125 L 175.285156 58.042969 L 177.097656 62.984375 C 175.601562 61.152344 173.679688 61.597656 173.679688 61.597656 C 174.121094 62.804688 174.894531 63.648438 175.457031 64.136719 C 173.828125 63.320312 171.503906 64.488281 171.597656 66.367188 C 171.707031 68.53125 173.195312 68.699219 173.195312 68.699219 C 172.015625 66.589844 175.125 64.648438 176.136719 67.3125 C 177.152344 69.976562 174.960938 78.074219 172.71875 77.964844 C 171.492188 77.902344 170.792969 77.09375 170.410156 76.371094 C 171.238281 76.199219 171.863281 75.4375 171.863281 74.523438 C 171.863281 73.480469 171.050781 72.636719 170.050781 72.636719 C 169.046875 72.636719 168.234375 73.480469 168.234375 74.523438 C 168.234375 75.421875 168.84375 76.175781 169.652344 76.363281 C 169.3125 77.09375 168.644531 77.925781 167.382812 78.019531 C 165.085938 78.183594 163.75 73.191406 164.070312 71.75 C 164.390625 70.304688 166.421875 70.195312 166.527344 71.472656 C 166.527344 71.472656 167.273438 69.917969 165.9375 69.363281 C 165.167969 69.042969 164.554688 69.242188 164.179688 69.464844 C 164.796875 68.917969 165.902344 67.699219 166.207031 65.8125 C 166.207031 65.8125 164.175781 65.921875 163.109375 67.976562 L 164.285156 63.871094 L 161.933594 59.210938 L 159.585938 63.871094 L 160.761719 67.976562 C 159.691406 65.921875 157.664062 65.8125 157.664062 65.8125 C 157.964844 67.699219 159.070312 68.914062 159.691406 69.464844 C 159.3125 69.242188 158.703125 69.042969 157.929688 69.363281 C 156.59375 69.917969 157.34375 71.472656 157.34375 71.472656 C 157.449219 70.195312 159.476562 70.304688 159.796875 71.75 C 160.117188 73.191406 158.785156 78.183594 156.488281 78.019531 C 155.234375 77.929688 154.570312 77.105469 154.222656 76.382812 C 155.085938 76.234375 155.742188 75.457031 155.742188 74.523438 C 155.742188 73.480469 154.929688 72.636719 153.925781 72.636719 C 152.921875 72.636719 152.109375 73.480469 152.109375 74.523438 C 152.109375 75.457031 152.765625 76.230469 153.621094 76.382812 C 153.355469 77.175781 152.824219 78.082031 151.789062 78.019531 C 149.976562 77.910156 147.679688 75.355469 146.449219 72.75 C 145.21875 70.140625 145.96875 68.644531 147.414062 69.476562 C 148.855469 70.308594 147.519531 71.972656 147.519531 71.972656 C 147.519531 71.972656 149.816406 71.917969 148.960938 69.367188 C 148.105469 66.8125 144.691406 67.203125 144.691406 67.203125 C 146.824219 66.09375 146.984375 63.207031 146.984375 63.207031 C 145.011719 63.152344 143.566406 64.960938 143.566406 64.960938 L 146.449219 59.378906 L 145.703125 52.832031 C 145.703125 52.832031 140.15625 60.375 141.859375 69.144531 C 143.992188 80.125 151.363281 85.003906 151.363281 85.003906 Z M 194.773438 74.796875 C 194.773438 74.796875 196.933594 77.523438 196.703125 78.859375 C 196.472656 80.199219 195.046875 79.957031 194.773438 78.667969 C 194.496094 79.957031 193.070312 80.199219 192.84375 78.859375 C 192.613281 77.519531 194.773438 74.796875 194.773438 74.796875 Z M 178.382812 74.523438 C 178.382812 74.523438 180.542969 77.246094 180.3125 78.585938 C 180.082031 79.921875 178.65625 79.683594 178.382812 78.394531 C 178.105469 79.683594 176.679688 79.921875 176.449219 78.585938 C 176.21875 77.246094 178.382812 74.523438 178.382812 74.523438 Z M 161.988281 74.796875 C 161.988281 74.796875 164.148438 77.523438 163.921875 78.859375 C 163.691406 80.199219 162.261719 79.957031 161.988281 78.667969 C 161.710938 79.957031 160.285156 80.199219 160.058594 78.859375 C 159.828125 77.519531 161.988281 74.796875 161.988281 74.796875 Z M 161.988281 74.796875 " fill-opacity="1" fill-rule="nonzero"/></g><path fill="#00bf63" d="M 205.71875 88.449219 C 206.324219 88.449219 206.824219 87.953125 206.824219 87.34375 C 206.824219 86.738281 206.328125 86.242188 205.71875 86.242188 L 151.042969 86.242188 C 150.4375 86.242188 149.9375 86.738281 149.9375 87.34375 C 149.9375 87.953125 150.433594 88.449219 151.042969 88.449219 Z M 205.71875 88.449219 " fill-opacity="1" fill-rule="nonzero"/><path fill="#00bf63" d="M 149.507812 98.472656 L 207.253906 98.472656 C 207.253906 98.472656 208.25 93.222656 205.703125 89.683594 L 151.058594 89.683594 C 148.511719 93.222656 149.507812 98.472656 149.507812 98.472656 Z M 194.746094 93.632812 C 195.140625 93.632812 195.460938 93.953125 195.460938 94.347656 C 195.460938 94.742188 195.140625 95.0625 194.746094 95.0625 C 194.351562 95.0625 194.03125 94.742188 194.03125 94.347656 C 194.035156 93.953125 194.351562 93.632812 194.746094 93.632812 Z M 192.425781 93.375 C 192.960938 93.375 193.398438 93.8125 193.398438 94.347656 C 193.398438 94.882812 192.960938 95.320312 192.425781 95.320312 C 191.890625 95.320312 191.457031 94.882812 191.457031 94.347656 C 191.457031 93.8125 191.890625 93.375 192.425781 93.375 Z M 189.640625 93.113281 C 190.320312 93.113281 190.875 93.664062 190.875 94.347656 C 190.875 95.027344 190.320312 95.582031 189.640625 95.582031 C 188.957031 95.582031 188.40625 95.027344 188.40625 94.347656 C 188.40625 93.664062 188.957031 93.113281 189.640625 93.113281 Z M 183.347656 94.347656 C 184.179688 93.785156 184.882812 92.667969 184.289062 92.179688 C 183.691406 91.6875 183.136719 92.390625 183.136719 92.390625 C 182.964844 91.410156 184.246094 90.726562 184.96875 91.582031 C 185.695312 92.433594 184.925781 93.859375 184.925781 93.859375 L 186.078125 93.371094 L 187.910156 94.347656 L 186.078125 95.320312 L 184.925781 94.832031 C 184.925781 94.832031 185.695312 96.257812 184.96875 97.113281 C 184.246094 97.964844 182.964844 97.28125 183.136719 96.300781 C 183.136719 96.300781 183.691406 97.003906 184.289062 96.515625 C 184.882812 96.023438 184.179688 94.910156 183.347656 94.347656 Z M 181.179688 92.578125 C 181.59375 92.578125 181.925781 92.914062 181.925781 93.328125 C 181.925781 93.742188 181.59375 94.078125 181.179688 94.078125 C 180.765625 94.078125 180.429688 93.742188 180.429688 93.328125 C 180.429688 92.917969 180.765625 92.578125 181.179688 92.578125 Z M 175.582031 92.578125 C 175.996094 92.578125 176.332031 92.914062 176.332031 93.328125 C 176.332031 93.742188 175.996094 94.078125 175.582031 94.078125 C 175.171875 94.078125 174.835938 93.742188 174.835938 93.328125 C 174.835938 92.917969 175.171875 92.578125 175.582031 92.578125 Z M 174.785156 95.050781 C 175.894531 94.109375 177.746094 95.105469 177.746094 95.105469 L 177.113281 93.609375 L 178.378906 91.222656 L 179.644531 93.609375 L 179.011719 95.105469 C 179.011719 95.105469 180.863281 94.105469 181.972656 95.050781 C 183.082031 95.992188 182.195312 97.65625 180.917969 97.4375 C 180.917969 97.4375 181.835938 96.714844 181.195312 95.9375 C 180.558594 95.160156 179.109375 96.078125 178.378906 97.160156 C 177.648438 96.078125 176.199219 95.160156 175.558594 95.9375 C 174.921875 96.714844 175.835938 97.4375 175.835938 97.4375 C 174.566406 97.660156 173.679688 95.992188 174.785156 95.050781 Z M 170.683594 93.375 L 171.835938 93.859375 C 171.835938 93.859375 171.066406 92.433594 171.792969 91.582031 C 172.519531 90.726562 173.796875 91.410156 173.625 92.394531 C 173.625 92.394531 173.070312 91.6875 172.476562 92.179688 C 171.878906 92.671875 172.582031 93.785156 173.414062 94.347656 C 172.582031 94.910156 171.878906 96.023438 172.476562 96.515625 C 173.070312 97.007812 173.625 96.300781 173.625 96.300781 C 173.796875 97.285156 172.519531 97.96875 171.792969 97.113281 C 171.066406 96.257812 171.835938 94.835938 171.835938 94.835938 L 170.683594 95.320312 L 168.851562 94.347656 Z M 167.121094 93.113281 C 167.804688 93.113281 168.355469 93.664062 168.355469 94.347656 C 168.355469 95.027344 167.804688 95.582031 167.121094 95.582031 C 166.441406 95.582031 165.886719 95.027344 165.886719 94.347656 C 165.886719 93.664062 166.441406 93.113281 167.121094 93.113281 Z M 164.335938 93.375 C 164.871094 93.375 165.304688 93.8125 165.304688 94.347656 C 165.304688 94.882812 164.871094 95.320312 164.335938 95.320312 C 163.800781 95.320312 163.367188 94.882812 163.367188 94.347656 C 163.367188 93.8125 163.800781 93.375 164.335938 93.375 Z M 162.015625 93.632812 C 162.410156 93.632812 162.726562 93.953125 162.726562 94.347656 C 162.726562 94.742188 162.410156 95.0625 162.015625 95.0625 C 161.621094 95.0625 161.300781 94.742188 161.300781 94.347656 C 161.300781 93.953125 161.621094 93.632812 162.015625 93.632812 Z M 162.015625 93.632812 " fill-opacity="1" fill-rule="nonzero"/><path fill="#00bf63" d="M 148.609375 100.210938 C 148.609375 100.636719 148.957031 100.988281 149.382812 100.988281 L 207.375 100.988281 C 207.804688 100.988281 208.152344 100.636719 208.152344 100.210938 C 208.152344 99.785156 207.804688 99.433594 207.375 99.433594 L 149.382812 99.433594 C 148.957031 99.433594 148.609375 99.78125 148.609375 100.210938 Z M 148.609375 100.210938 " fill-opacity="1" fill-rule="nonzero"/><path fill="#00bf63" d="M 170.429688 273.121094 C 166.242188 273.34375 162.667969 270.371094 161.097656 271.070312 C 159.53125 271.769531 160.574219 273.121094 160.574219 273.121094 C 159.617188 273.171875 156.914062 271.59375 155.605469 271.941406 C 154.300781 272.292969 154.910156 274.125 154.910156 274.125 C 154.910156 274.125 151.421875 271.070312 149.675781 272.03125 C 147.933594 272.988281 149.675781 274.535156 149.675781 274.535156 C 146.625 274.597656 142.441406 268.976562 145.230469 265.222656 C 148.019531 261.472656 152.117188 265.222656 150.722656 266.621094 C 149.328125 268.015625 148.457031 269.761719 151.421875 270.195312 C 154.386719 270.632812 156.21875 265.050781 153.949219 262.082031 C 151.683594 259.117188 147.410156 260.25 147.410156 260.25 C 148.542969 259.988281 148.894531 257.71875 146.363281 257.632812 C 143.835938 257.546875 141.570312 260.601562 141.570312 260.601562 C 142.09375 259.03125 140.261719 256.933594 138.429688 259.292969 C 136.597656 261.648438 138.953125 266.792969 138.953125 266.792969 C 135.292969 262.433594 132.066406 263.652344 130.671875 265.136719 C 129.277344 266.621094 126.574219 265.136719 126.574219 265.136719 C 128.230469 269.148438 131.019531 269.847656 133.722656 270.109375 C 136.425781 270.371094 138.75 272.582031 138.75 272.582031 C 134.914062 270.835938 131.542969 274.535156 131.542969 274.535156 C 136.65625 274.742188 135.726562 275.839844 144.910156 278.628906 C 154.097656 281.421875 170.429688 273.121094 170.429688 273.121094 Z M 170.429688 273.121094 " fill-opacity="1" fill-rule="nonzero"/><path fill="#00bf63" d="M 163.222656 278.582031 C 160.085938 283.886719 156.261719 282.585938 156.261719 282.585938 C 160.050781 282.175781 162.710938 277.460938 162.710938 277.460938 C 158.925781 281.703125 148.992188 281.148438 148.992188 281.148438 C 151.757812 286.476562 157.183594 284.734375 157.183594 284.734375 C 154.683594 287.3125 156.054688 290.269531 156.054688 290.269531 C 158.617188 289.347656 159.84375 285.761719 159.84375 285.761719 C 160.136719 290.398438 166.804688 290.988281 166.804688 290.988281 C 162.507812 286.273438 163.222656 278.582031 163.222656 278.582031 Z M 163.222656 278.582031 " fill-opacity="1" fill-rule="nonzero"/><path fill="#00bf63" d="M 142.507812 257.632812 C 144.339844 251.632812 134.015625 246.46875 131.765625 246.800781 C 129.519531 247.132812 130.433594 248.882812 130.433594 248.882812 C 130.433594 248.882812 127.855469 245.132812 126.023438 245.46875 C 124.191406 245.800781 125.105469 247.550781 125.105469 247.550781 C 125.105469 247.550781 122.027344 243.550781 120.363281 244.757812 C 118.695312 245.964844 120.195312 247.382812 120.195312 247.382812 C 113.703125 246.382812 112.621094 238.71875 115.617188 236.46875 C 118.613281 234.222656 121.777344 236.136719 121.777344 236.136719 C 121.777344 236.136719 119.363281 235.472656 119.695312 238.636719 C 120.027344 241.804688 125.355469 241.46875 125.773438 238.054688 C 126.1875 234.636719 124.109375 231.972656 119.777344 231.890625 C 115.449219 231.804688 108.289062 235.972656 111.039062 244.46875 C 113.785156 252.96875 125.191406 253.132812 133.933594 253.300781 C 142.675781 253.464844 142.507812 257.632812 142.507812 257.632812 Z M 142.507812 257.632812 " fill-opacity="1" fill-rule="nonzero"/><path fill="#00bf63" d="M 125.34375 261.464844 C 125.34375 261.464844 125.261719 259.464844 128.300781 257.632812 C 131.339844 255.796875 132.839844 259.046875 131.257812 260.382812 C 129.675781 261.714844 129.09375 260.382812 129.09375 260.382812 C 129.09375 260.382812 128.675781 262.464844 130.839844 262.464844 C 133.003906 262.464844 133.921875 260.964844 135.335938 258.632812 C 136.753906 256.296875 139.417969 255.882812 141.164062 257.132812 C 141.410156 257.308594 139.75 252.96875 130.339844 254.71875 C 120.933594 256.464844 115.4375 252.300781 115.4375 252.300781 C 115.4375 252.300781 116.9375 253.800781 117.1875 255.21875 C 117.4375 256.632812 120.351562 256.714844 120.351562 256.714844 C 120.351562 256.714844 118.269531 257.300781 118.019531 258.964844 C 117.769531 260.632812 116.9375 261.132812 116.9375 261.132812 C 116.9375 261.132812 121.097656 262.285156 123.511719 258.714844 C 123.511719 258.714844 121.097656 258.800781 120.183594 259.796875 C 120.183594 259.796875 122.097656 257.550781 124.679688 257.632812 C 124.679688 257.632812 123.097656 259.738281 123.597656 261.308594 C 124.097656 262.882812 123.429688 263.882812 123.429688 263.882812 C 123.429688 263.882812 127.59375 262.632812 128.300781 258.464844 C 128.300781 258.464844 126.234375 259.484375 125.34375 261.464844 Z M 125.34375 261.464844 " fill-opacity="1" fill-rule="nonzero"/><path fill="#00bf63" d="M 120.796875 227.921875 C 120.796875 227.921875 108.433594 217.675781 109.183594 211.175781 C 109.933594 204.679688 109.433594 197.304688 103.5625 197.929688 C 97.695312 198.554688 99.808594 203.304688 99.808594 203.304688 C 99.304688 200.554688 104.0625 199.929688 104.3125 203.429688 C 104.5625 206.925781 100.066406 209.675781 97.070312 206.300781 C 94.070312 202.925781 95.195312 196.804688 93.324219 196.179688 C 91.449219 195.554688 90.449219 197.429688 90.449219 197.429688 C 89.203125 193.679688 91.824219 187.554688 89.699219 186.554688 C 87.578125 185.554688 86.453125 188.054688 86.453125 188.054688 C 86.828125 184.054688 91.574219 182.179688 90.824219 179.554688 C 90.074219 176.933594 87.328125 178.429688 87.328125 178.429688 C 90.824219 172.183594 102.0625 174.683594 101.566406 179.679688 C 101.066406 184.679688 95.820312 180.179688 95.070312 185.179688 C 94.320312 190.179688 108.058594 193.679688 108.058594 179.679688 C 108.058594 165.683594 78.089844 158.1875 78.835938 186.929688 C 79.585938 215.671875 120.796875 229.921875 120.796875 229.921875 C 107.433594 223.921875 105.3125 212.300781 105.3125 212.300781 C 108.808594 222.425781 120.796875 227.921875 120.796875 227.921875 Z M 120.796875 227.921875 " fill-opacity="1" fill-rule="nonzero"/><path fill="#00bf63" d="M 96.101562 227.972656 C 86.503906 232.820312 90.808594 244.757812 97 244.757812 C 103.1875 244.757812 104.804688 240 103.1875 238.207031 C 101.574219 236.410156 101.753906 237.9375 99.957031 240 C 98.164062 242.066406 94.039062 240.71875 94.84375 236.949219 C 95.652344 233.179688 99.6875 233.269531 99.6875 233.269531 C 99.6875 233.269531 97.175781 234.246094 98.074219 235.550781 C 98.972656 236.859375 103.007812 233.628906 103.007812 233.628906 C 103.007812 233.628906 101.214844 235.511719 102.917969 236.050781 C 104.625 236.589844 107.941406 232.460938 107.941406 232.460938 C 107.941406 232.460938 107.042969 234.4375 108.75 234.527344 C 110.453125 234.617188 111.890625 230.574219 117.628906 230.664062 C 117.628906 230.664062 105.699219 223.125 96.101562 227.972656 Z M 96.101562 227.972656 " fill-opacity="1" fill-rule="nonzero"/><g clip-path="url(#ea8753efae)"><path fill="#00bf63" d="M 91.035156 225.5 C 93.527344 227.511719 100.484375 223.660156 104.054688 224.03125 C 104.054688 224.03125 82.378906 215.8125 76.210938 194.585938 C 76.210938 194.585938 75.773438 201.144531 77.292969 204.804688 C 77.292969 204.804688 75.550781 203.722656 73.609375 204.726562 C 71.671875 205.730469 70.382812 205.566406 70.382812 205.566406 C 70.382812 205.566406 72.707031 208.96875 76.777344 209.265625 C 76.777344 209.265625 74.632812 210.355469 74.335938 212.433594 C 74.035156 214.511719 73.296875 215.375 73.296875 215.375 C 73.296875 215.375 77.582031 215.382812 79.890625 212.902344 C 79.890625 212.902344 78.464844 211.4375 75.882812 213.40625 C 75.882812 213.40625 77.824219 210.308594 80.890625 210.757812 C 80.890625 210.757812 78.894531 207.980469 75.628906 206.617188 C 75.628906 206.617188 82.925781 207.765625 83.28125 214.859375 C 83.636719 221.949219 77.910156 218.882812 79.726562 216.28125 C 79.726562 216.28125 76.996094 217.144531 78.726562 220.519531 C 80.457031 223.890625 86.058594 223.550781 87.039062 218.527344 C 87.039062 218.527344 86.46875 221.089844 87.929688 221.757812 C 89.390625 222.425781 91.132812 221.414062 91.132812 221.414062 C 91.132812 221.414062 88.542969 223.484375 91.035156 225.5 Z M 91.035156 225.5 " fill-opacity="1" fill-rule="nonzero"/></g><path fill="#00bf63" d="M 89.839844 138.199219 C 88.261719 154.363281 108.902344 169.527344 108.902344 169.527344 C 105.40625 162.695312 107.570312 154.363281 105.40625 150.699219 C 103.242188 147.03125 101.410156 151.363281 101.410156 151.363281 C 101.410156 151.363281 101.078125 146.699219 98.914062 146.363281 C 96.75 146.03125 96.914062 150.03125 96.914062 150.03125 C 93.25 145.867188 92.585938 134.535156 98.246094 132.328125 C 102.894531 130.511719 103.910156 134.203125 103.910156 134.203125 C 103.910156 134.203125 99.578125 132.367188 99.6875 136.867188 C 99.796875 141.367188 108.40625 143.367188 109.570312 134.867188 C 110.734375 126.367188 91.417969 122.035156 89.839844 138.199219 Z M 89.839844 138.199219 " fill-opacity="1" fill-rule="nonzero"/><path fill="#00bf63" d="M 131.996094 110.289062 C 140.976562 95.46875 121.707031 86.808594 117.269531 94.816406 C 112.835938 102.820312 121.46875 106.625 124.433594 102.847656 C 127.402344 99.074219 122.53125 97.867188 122.53125 97.867188 C 122.53125 97.867188 125.753906 95.363281 128.566406 99.890625 C 131.992188 105.398438 124.183594 114.65625 118.390625 115.871094 C 118.390625 115.871094 121.089844 112.558594 119.027344 111.457031 C 116.964844 110.359375 113.699219 114.132812 113.699219 114.132812 C 113.699219 114.132812 114.902344 109.257812 110.710938 111.003906 C 106.515625 112.75 103.042969 121.253906 95.6875 124.855469 C 95.6875 124.855469 123.015625 125.109375 131.996094 110.289062 Z M 131.996094 110.289062 " fill-opacity="1" fill-rule="nonzero"/><path fill="#00bf63" d="M 79.636719 167.027344 C 84.632812 169.777344 88.753906 165.402344 87.628906 163.152344 C 86.507812 160.902344 85.257812 161.527344 84.007812 163.402344 C 82.761719 165.277344 80.003906 164.019531 81.445312 160.835938 C 82.882812 157.652344 87.378906 158.027344 89.753906 159.652344 C 89.753906 159.652344 88.378906 160.277344 88.878906 161.527344 C 89.378906 162.777344 93.5 162.527344 93.5 162.527344 C 93.5 162.527344 91.5 163.28125 92.125 164.527344 C 92.75 165.777344 98.875 164.402344 102.429688 166.402344 C 102.429688 166.402344 93.375 153.28125 84.753906 153.78125 C 76.140625 154.277344 74.644531 164.277344 79.636719 167.027344 Z M 79.636719 167.027344 " fill-opacity="1" fill-rule="nonzero"/><path fill="#00bf63" d="M 108.863281 145.625 C 108.863281 146.050781 108.78125 146.460938 108.617188 146.855469 C 108.453125 147.25 108.222656 147.597656 107.917969 147.898438 C 107.617188 148.199219 107.269531 148.433594 106.875 148.597656 C 106.484375 148.757812 106.074219 148.839844 105.648438 148.839844 C 105.21875 148.839844 104.808594 148.757812 104.417969 148.597656 C 104.023438 148.433594 103.675781 148.199219 103.375 147.898438 C 103.070312 147.597656 102.839844 147.25 102.675781 146.855469 C 102.511719 146.460938 102.433594 146.050781 102.433594 145.625 C 102.433594 145.195312 102.511719 144.785156 102.675781 144.390625 C 102.839844 144 103.070312 143.648438 103.375 143.347656 C 103.675781 143.046875 104.023438 142.8125 104.417969 142.652344 C 104.808594 142.488281 105.21875 142.40625 105.648438 142.40625 C 106.074219 142.40625 106.484375 142.488281 106.875 142.652344 C 107.269531 142.8125 107.617188 143.046875 107.917969 143.347656 C 108.222656 143.648438 108.453125 144 108.617188 144.390625 C 108.78125 144.785156 108.863281 145.195312 108.863281 145.625 Z M 108.863281 145.625 " fill-opacity="1" fill-rule="nonzero"/><path fill="#00bf63" d="M 91.035156 130.824219 C 91.035156 130.824219 82.671875 131.375 79.441406 135.117188 C 79.441406 135.117188 83.136719 130.128906 90.265625 129.398438 C 90.265625 129.398438 82.523438 125.0625 78.621094 130.445312 C 74.714844 135.828125 71.382812 136.238281 71.382812 136.238281 C 71.382812 136.238281 84 143.019531 91.035156 130.824219 Z M 91.035156 130.824219 " fill-opacity="1" fill-rule="nonzero"/><path fill="#00bf63" d="M 93.234375 127.417969 C 93.234375 127.417969 87.585938 121.21875 82.648438 121.027344 C 82.648438 121.027344 88.847656 120.804688 93.871094 125.921875 C 93.871094 125.921875 92.421875 117.164062 85.78125 117.46875 C 79.140625 117.777344 76.742188 115.425781 76.742188 115.425781 C 76.742188 115.425781 79.324219 129.527344 93.234375 127.417969 Z M 93.234375 127.417969 " fill-opacity="1" fill-rule="nonzero"/><path fill="#00bf63" d="M 97.359375 111.703125 C 94.589844 115.800781 96.234375 124.023438 96.234375 124.023438 C 106.171875 114.054688 96.347656 103.625 96.347656 103.625 C 96.347656 103.625 96.816406 106.953125 92.636719 112.125 C 88.457031 117.296875 94.652344 123.648438 94.652344 123.648438 C 93.507812 116.570312 97.359375 111.703125 97.359375 111.703125 Z M 97.359375 111.703125 " fill-opacity="1" fill-rule="nonzero"/><path fill="#00bf63" d="M 77.460938 153.730469 C 77.460938 153.730469 84.777344 149.300781 92.875 154.527344 C 92.875 154.527344 85.679688 146.484375 87.910156 137.363281 C 87.910156 137.363281 82.390625 142.234375 86.082031 148.578125 C 86.082031 148.578125 79.8125 147.703125 77.460938 153.730469 Z M 77.460938 153.730469 " fill-opacity="1" fill-rule="nonzero"/><path fill="#00bf63" d="M 98.578125 191.8125 C 97.222656 191.8125 96.125 192.914062 96.125 194.269531 C 96.125 195.628906 97.222656 196.726562 98.578125 196.726562 C 99.9375 196.726562 101.035156 195.628906 101.035156 194.269531 C 101.035156 192.914062 99.933594 191.8125 98.578125 191.8125 Z M 98.578125 191.8125 " fill-opacity="1" fill-rule="nonzero"/><path fill="#00bf63" d="M 79.089844 168.953125 C 79.425781 169.289062 79.683594 169.675781 79.863281 170.117188 C 80.046875 170.554688 80.136719 171.011719 80.136719 171.488281 C 80.136719 171.960938 80.046875 172.417969 79.863281 172.859375 C 79.683594 173.296875 79.425781 173.683594 79.089844 174.019531 C 78.753906 174.355469 78.367188 174.613281 77.925781 174.796875 C 77.488281 174.980469 77.03125 175.070312 76.558594 175.070312 C 76.082031 175.070312 75.625 174.980469 75.1875 174.796875 C 74.75 174.613281 74.359375 174.355469 74.027344 174.019531 C 73.691406 173.683594 73.429688 173.296875 73.25 172.859375 C 73.066406 172.417969 72.976562 171.960938 72.976562 171.488281 C 72.976562 171.011719 73.066406 170.554688 73.25 170.117188 C 73.429688 169.675781 73.691406 169.289062 74.027344 168.953125 C 74.359375 168.617188 74.75 168.359375 75.1875 168.175781 C 75.625 167.996094 76.082031 167.90625 76.558594 167.90625 C 77.03125 167.90625 77.488281 167.996094 77.925781 168.175781 C 78.367188 168.359375 78.753906 168.617188 79.089844 168.953125 Z M 79.089844 168.953125 " fill-opacity="1" fill-rule="nonzero"/><path fill="#00bf63" d="M 106.402344 109.570312 C 109.023438 109.570312 111.144531 107.445312 111.144531 104.824219 C 111.144531 102.207031 109.023438 100.082031 106.402344 100.082031 C 103.785156 100.082031 101.664062 102.207031 101.664062 104.824219 C 101.664062 107.445312 103.785156 109.570312 106.402344 109.570312 Z M 106.402344 109.570312 " fill-opacity="1" fill-rule="nonzero"/><g clip-path="url(#14559892d0)"><path fill="#00bf63" d="M 186.625 275.710938 C 181.460938 273.628906 178.382812 277.628906 178.382812 277.628906 C 178.382812 277.628906 175.300781 273.628906 170.136719 275.710938 C 164.488281 277.992188 164.058594 285.460938 168.140625 286.960938 C 171.261719 288.105469 171.386719 285.292969 171.386719 285.292969 C 169.554688 286.375 167.140625 282.125 171.722656 280.960938 C 176.300781 279.792969 177.882812 285.042969 176.050781 287.125 C 174.28125 289.136719 175.308594 291.539062 175.378906 291.699219 C 174.542969 289.542969 172.054688 289.046875 171.222656 290.957031 C 170.390625 292.875 174.636719 294.957031 174.636719 294.957031 C 169.308594 294.539062 169.558594 299.039062 169.558594 299.039062 C 170.558594 296.289062 176.21875 297.289062 174.21875 301.289062 C 172.222656 305.289062 178.382812 311.496094 178.382812 311.496094 C 178.382812 311.496094 184.546875 305.289062 182.546875 301.289062 C 180.550781 297.289062 186.210938 296.289062 187.210938 299.039062 C 187.210938 299.039062 187.460938 294.539062 182.132812 294.957031 C 182.132812 294.957031 186.378906 292.875 185.542969 290.957031 C 184.714844 289.046875 182.222656 289.542969 181.386719 291.699219 C 181.457031 291.539062 182.488281 289.140625 180.714844 287.125 C 178.886719 285.042969 180.464844 279.792969 185.046875 280.960938 C 189.625 282.125 187.210938 286.375 185.378906 285.292969 C 185.378906 285.292969 185.507812 288.105469 188.628906 286.960938 C 192.703125 285.457031 192.273438 277.992188 186.625 275.710938 Z M 186.625 275.710938 " fill-opacity="1" fill-rule="nonzero"/></g><path fill="#00bf63" d="M 226.089844 265.136719 C 224.695312 263.652344 221.46875 262.433594 217.808594 266.792969 C 217.808594 266.792969 220.160156 261.648438 218.332031 259.292969 C 216.5 256.9375 214.667969 259.03125 215.191406 260.601562 C 215.191406 260.601562 212.925781 257.546875 210.394531 257.632812 C 207.867188 257.71875 208.214844 259.988281 209.351562 260.25 C 209.351562 260.25 205.078125 259.117188 202.8125 262.082031 C 200.546875 265.046875 202.375 270.632812 205.339844 270.195312 C 208.304688 269.761719 207.429688 268.015625 206.035156 266.621094 C 204.640625 265.222656 208.738281 261.472656 211.53125 265.222656 C 214.320312 268.976562 210.132812 274.597656 207.082031 274.535156 C 207.082031 274.535156 208.828125 272.988281 207.082031 272.03125 C 205.339844 271.070312 201.851562 274.125 201.851562 274.125 C 201.851562 274.125 202.460938 272.292969 201.15625 271.941406 C 199.847656 271.59375 197.144531 273.167969 196.183594 273.121094 C 196.183594 273.121094 197.230469 271.769531 195.660156 271.070312 C 194.09375 270.371094 190.519531 273.34375 186.332031 273.121094 C 186.332031 273.121094 202.664062 281.421875 211.847656 278.632812 C 221.03125 275.839844 220.101562 274.742188 225.21875 274.535156 C 225.21875 274.535156 221.847656 270.839844 218.011719 272.582031 C 218.011719 272.582031 220.335938 270.375 223.039062 270.113281 C 225.742188 269.847656 228.53125 269.152344 230.1875 265.136719 C 230.1875 265.136719 227.484375 266.621094 226.089844 265.136719 Z M 226.089844 265.136719 " fill-opacity="1" fill-rule="nonzero"/><path fill="#00bf63" d="M 194.050781 277.460938 C 194.050781 277.460938 196.714844 282.175781 200.5 282.585938 C 200.5 282.585938 196.675781 283.886719 193.539062 278.582031 C 193.539062 278.582031 194.257812 286.273438 189.957031 290.988281 C 189.957031 290.988281 196.625 290.398438 196.917969 285.761719 C 196.917969 285.761719 198.148438 289.347656 200.707031 290.269531 C 200.707031 290.269531 202.078125 287.3125 199.578125 284.734375 C 199.578125 284.734375 205.007812 286.476562 207.769531 281.148438 C 207.773438 281.148438 197.839844 281.703125 194.050781 277.460938 Z M 194.050781 277.460938 " fill-opacity="1" fill-rule="nonzero"/><path fill="#00bf63" d="M 236.984375 231.886719 C 232.652344 231.972656 230.574219 234.636719 230.988281 238.054688 C 231.40625 241.46875 236.734375 241.800781 237.066406 238.636719 C 237.398438 235.46875 234.984375 236.136719 234.984375 236.136719 C 234.984375 236.136719 238.148438 234.21875 241.144531 236.46875 C 244.144531 238.71875 243.0625 246.382812 236.566406 247.382812 C 236.566406 247.382812 238.066406 245.964844 236.402344 244.757812 C 234.734375 243.550781 231.65625 247.550781 231.65625 247.550781 C 231.65625 247.550781 232.570312 245.800781 230.738281 245.464844 C 228.90625 245.132812 226.328125 248.882812 226.328125 248.882812 C 226.328125 248.882812 227.242188 247.132812 224.996094 246.800781 C 222.746094 246.464844 212.421875 251.628906 214.253906 257.628906 C 214.253906 257.628906 214.089844 253.464844 222.832031 253.296875 C 231.574219 253.132812 242.976562 252.964844 245.726562 244.464844 C 248.472656 235.96875 241.3125 231.804688 236.984375 231.886719 Z M 236.984375 231.886719 " fill-opacity="1" fill-rule="nonzero"/><path fill="#00bf63" d="M 239.574219 255.214844 C 239.824219 253.800781 241.324219 252.300781 241.324219 252.300781 C 241.324219 252.300781 235.828125 256.464844 226.417969 254.714844 C 217.011719 252.964844 215.351562 257.308594 215.597656 257.132812 C 217.34375 255.882812 220.007812 256.296875 221.425781 258.628906 C 222.839844 260.964844 223.753906 262.464844 225.921875 262.464844 C 228.085938 262.464844 227.667969 260.378906 227.667969 260.378906 C 227.667969 260.378906 227.085938 261.714844 225.503906 260.378906 C 223.921875 259.046875 225.421875 255.796875 228.460938 257.628906 C 231.496094 259.464844 231.414062 261.460938 231.414062 261.460938 C 230.527344 259.484375 228.460938 258.464844 228.460938 258.464844 C 229.167969 262.628906 233.328125 263.878906 233.328125 263.878906 C 233.328125 263.878906 232.664062 262.878906 233.164062 261.308594 C 233.664062 259.734375 232.082031 257.628906 232.082031 257.628906 C 234.660156 257.546875 236.578125 259.796875 236.578125 259.796875 C 235.660156 258.796875 233.246094 258.714844 233.246094 258.714844 C 235.664062 262.285156 239.824219 261.128906 239.824219 261.128906 C 239.824219 261.128906 238.992188 260.628906 238.742188 258.964844 C 238.492188 257.296875 236.410156 256.714844 236.410156 256.714844 C 236.410156 256.714844 239.324219 256.632812 239.574219 255.214844 Z M 239.574219 255.214844 " fill-opacity="1" fill-rule="nonzero"/><path fill="#00bf63" d="M 235.964844 229.921875 C 235.964844 229.921875 277.175781 215.675781 277.925781 186.929688 C 278.675781 158.1875 248.703125 165.6875 248.703125 179.683594 C 248.703125 193.679688 262.441406 190.179688 261.691406 185.179688 C 260.941406 180.183594 255.695312 184.679688 255.195312 179.683594 C 254.695312 174.683594 265.9375 172.183594 269.433594 178.433594 C 269.433594 178.433594 266.6875 176.933594 265.9375 179.558594 C 265.1875 182.183594 269.933594 184.058594 270.308594 188.054688 C 270.308594 188.054688 269.183594 185.554688 267.0625 186.554688 C 264.9375 187.558594 267.5625 193.679688 266.3125 197.429688 C 266.3125 197.429688 265.3125 195.554688 263.441406 196.179688 C 261.566406 196.804688 262.691406 202.929688 259.695312 206.304688 C 256.695312 209.675781 252.199219 206.929688 252.449219 203.429688 C 252.699219 199.929688 257.460938 200.554688 256.953125 203.304688 C 256.953125 203.304688 259.070312 198.554688 253.199219 197.929688 C 247.328125 197.304688 246.828125 204.679688 247.578125 211.179688 C 248.328125 217.675781 235.964844 227.925781 235.964844 227.925781 C 235.964844 227.925781 247.953125 222.425781 251.449219 212.304688 C 251.449219 212.300781 249.328125 223.925781 235.964844 229.921875 Z M 235.964844 229.921875 " fill-opacity="1" fill-rule="nonzero"/><path fill="#00bf63" d="M 260.660156 227.972656 C 251.0625 223.125 239.132812 230.664062 239.132812 230.664062 C 244.871094 230.574219 246.308594 234.617188 248.011719 234.527344 C 249.71875 234.4375 248.820312 232.460938 248.820312 232.460938 C 248.820312 232.460938 252.140625 236.589844 253.84375 236.050781 C 255.546875 235.511719 253.753906 233.628906 253.753906 233.628906 C 253.753906 233.628906 257.789062 236.859375 258.6875 235.550781 C 259.582031 234.246094 257.070312 233.269531 257.070312 233.269531 C 257.070312 233.269531 261.109375 233.175781 261.914062 236.949219 C 262.722656 240.71875 258.597656 242.066406 256.800781 240 C 255.007812 237.9375 255.1875 236.410156 253.574219 238.207031 C 251.957031 240 253.574219 244.757812 259.761719 244.757812 C 265.949219 244.757812 270.257812 232.820312 260.660156 227.972656 Z M 260.660156 227.972656 " fill-opacity="1" fill-rule="nonzero"/><g clip-path="url(#a7e3c42a44)"><path fill="#00bf63" d="M 286.378906 205.570312 C 286.378906 205.570312 285.09375 205.730469 283.152344 204.726562 C 281.210938 203.726562 279.472656 204.804688 279.472656 204.804688 C 280.988281 201.144531 280.554688 194.589844 280.554688 194.589844 C 274.382812 215.816406 252.710938 224.035156 252.710938 224.035156 C 256.277344 223.664062 263.234375 227.515625 265.726562 225.5 C 268.21875 223.488281 265.628906 221.417969 265.628906 221.417969 C 265.628906 221.417969 267.371094 222.429688 268.832031 221.761719 C 270.296875 221.09375 269.722656 218.53125 269.722656 218.53125 C 270.703125 223.554688 276.304688 223.894531 278.035156 220.523438 C 279.765625 217.152344 277.035156 216.285156 277.035156 216.285156 C 278.855469 218.890625 273.125 221.957031 273.480469 214.863281 C 273.835938 207.769531 281.132812 206.621094 281.132812 206.621094 C 277.867188 207.984375 275.871094 210.761719 275.871094 210.761719 C 278.9375 210.316406 280.878906 213.410156 280.878906 213.410156 C 278.296875 211.441406 276.871094 212.90625 276.871094 212.90625 C 279.183594 215.386719 283.464844 215.378906 283.464844 215.378906 C 283.464844 215.378906 282.726562 214.519531 282.425781 212.441406 C 282.128906 210.363281 279.984375 209.269531 279.984375 209.269531 C 284.054688 208.96875 286.378906 205.570312 286.378906 205.570312 Z M 286.378906 205.570312 " fill-opacity="1" fill-rule="nonzero"/></g><path fill="#00bf63" d="M 247.191406 134.867188 C 248.359375 143.363281 256.964844 141.367188 257.074219 136.867188 C 257.183594 132.367188 252.851562 134.199219 252.851562 134.199219 C 252.851562 134.199219 253.867188 130.511719 258.515625 132.324219 C 264.175781 134.53125 263.511719 145.863281 259.847656 150.03125 C 259.847656 150.03125 260.011719 146.03125 257.847656 146.363281 C 255.683594 146.695312 255.351562 151.363281 255.351562 151.363281 C 255.351562 151.363281 253.519531 147.03125 251.355469 150.695312 C 249.191406 154.363281 251.355469 162.695312 247.859375 169.523438 C 247.859375 169.523438 268.5 154.363281 266.921875 138.199219 C 265.34375 122.035156 246.027344 126.367188 247.191406 134.867188 Z M 247.191406 134.867188 " fill-opacity="1" fill-rule="nonzero"/><path fill="#00bf63" d="M 261.074219 124.855469 C 253.722656 121.253906 250.246094 112.753906 246.054688 111.003906 C 241.859375 109.257812 243.066406 114.132812 243.066406 114.132812 C 243.066406 114.132812 239.796875 110.359375 237.734375 111.460938 C 235.671875 112.5625 238.371094 115.871094 238.371094 115.871094 C 232.578125 114.65625 224.765625 105.402344 228.195312 99.890625 C 231.007812 95.367188 234.230469 97.871094 234.230469 97.871094 C 234.230469 97.871094 229.359375 99.074219 232.328125 102.847656 C 235.296875 106.625 243.929688 102.824219 239.492188 94.816406 C 235.058594 86.808594 215.785156 95.46875 224.765625 110.289062 C 233.746094 125.109375 261.074219 124.855469 261.074219 124.855469 Z M 261.074219 124.855469 " fill-opacity="1" fill-rule="nonzero"/><path fill="#00bf63" d="M 272.753906 163.402344 C 271.503906 161.527344 270.253906 160.902344 269.132812 163.152344 C 268.007812 165.402344 272.128906 169.777344 277.125 167.027344 C 282.121094 164.277344 280.621094 154.28125 272.003906 153.78125 C 263.386719 153.28125 254.328125 166.402344 254.328125 166.402344 C 257.886719 164.402344 264.011719 165.777344 264.632812 164.527344 C 265.257812 163.277344 263.261719 162.527344 263.261719 162.527344 C 263.261719 162.527344 267.382812 162.777344 267.878906 161.527344 C 268.378906 160.277344 267.007812 159.652344 267.007812 159.652344 C 269.378906 158.027344 273.875 157.652344 275.316406 160.835938 C 276.757812 164.019531 274 165.277344 272.753906 163.402344 Z M 272.753906 163.402344 " fill-opacity="1" fill-rule="nonzero"/><path fill="#00bf63" d="M 254.332031 145.625 C 254.332031 146.050781 254.25 146.460938 254.085938 146.855469 C 253.921875 147.25 253.691406 147.597656 253.390625 147.898438 C 253.085938 148.199219 252.738281 148.433594 252.347656 148.597656 C 251.953125 148.757812 251.542969 148.839844 251.117188 148.839844 C 250.6875 148.839844 250.277344 148.757812 249.886719 148.597656 C 249.492188 148.433594 249.144531 148.199219 248.84375 147.898438 C 248.539062 147.597656 248.308594 147.25 248.144531 146.855469 C 247.980469 146.460938 247.902344 146.050781 247.902344 145.625 C 247.902344 145.195312 247.980469 144.785156 248.144531 144.390625 C 248.308594 144 248.539062 143.648438 248.84375 143.347656 C 249.144531 143.046875 249.492188 142.8125 249.886719 142.652344 C 250.277344 142.488281 250.6875 142.40625 251.117188 142.40625 C 251.542969 142.40625 251.953125 142.488281 252.347656 142.652344 C 252.738281 142.8125 253.085938 143.046875 253.390625 143.347656 C 253.691406 143.648438 253.921875 144 254.085938 144.390625 C 254.25 144.785156 254.332031 145.195312 254.332031 145.625 Z M 254.332031 145.625 " fill-opacity="1" fill-rule="nonzero"/><path fill="#00bf63" d="M 266.5 129.398438 C 273.628906 130.128906 277.324219 135.117188 277.324219 135.117188 C 274.089844 131.375 265.726562 130.824219 265.726562 130.824219 C 272.765625 143.019531 285.382812 136.238281 285.382812 136.238281 C 285.382812 136.238281 282.050781 135.828125 278.144531 130.445312 C 274.238281 125.0625 266.5 129.398438 266.5 129.398438 Z M 266.5 129.398438 " fill-opacity="1" fill-rule="nonzero"/><path fill="#00bf63" d="M 274.113281 121.027344 C 269.175781 121.21875 263.527344 127.417969 263.527344 127.417969 C 277.4375 129.523438 280.019531 115.425781 280.019531 115.425781 C 280.019531 115.425781 277.621094 117.777344 270.980469 117.46875 C 264.339844 117.164062 262.894531 125.921875 262.894531 125.921875 C 267.914062 120.804688 274.113281 121.027344 274.113281 121.027344 Z M 274.113281 121.027344 " fill-opacity="1" fill-rule="nonzero"/><path fill="#00bf63" d="M 259.40625 111.703125 C 259.40625 111.703125 263.253906 116.570312 262.109375 123.652344 C 262.109375 123.652344 268.304688 117.296875 264.125 112.125 C 259.945312 106.953125 260.417969 103.625 260.417969 103.625 C 260.417969 103.625 250.59375 114.054688 260.53125 124.027344 C 260.527344 124.023438 262.171875 115.800781 259.40625 111.703125 Z M 259.40625 111.703125 " fill-opacity="1" fill-rule="nonzero"/><path fill="#00bf63" d="M 279.300781 153.730469 C 276.949219 147.703125 270.679688 148.578125 270.679688 148.578125 C 274.371094 142.234375 268.851562 137.363281 268.851562 137.363281 C 271.082031 146.488281 263.886719 154.527344 263.886719 154.527344 C 271.984375 149.300781 279.300781 153.730469 279.300781 153.730469 Z M 279.300781 153.730469 " fill-opacity="1" fill-rule="nonzero"/><path fill="#00bf63" d="M 260.636719 194.269531 C 260.636719 192.914062 259.539062 191.8125 258.183594 191.8125 C 256.824219 191.8125 255.726562 192.914062 255.726562 194.269531 C 255.726562 195.628906 256.824219 196.726562 258.183594 196.726562 C 259.539062 196.726562 260.636719 195.628906 260.636719 194.269531 Z M 260.636719 194.269531 " fill-opacity="1" fill-rule="nonzero"/><path fill="#00bf63" d="M 282.734375 168.957031 C 283.070312 169.292969 283.328125 169.679688 283.507812 170.117188 C 283.691406 170.558594 283.78125 171.015625 283.78125 171.488281 C 283.78125 171.964844 283.691406 172.421875 283.507812 172.859375 C 283.328125 173.296875 283.070312 173.6875 282.734375 174.023438 C 282.398438 174.359375 282.011719 174.617188 281.570312 174.796875 C 281.132812 174.980469 280.675781 175.070312 280.203125 175.070312 C 279.726562 175.070312 279.269531 174.980469 278.832031 174.796875 C 278.394531 174.617188 278.003906 174.359375 277.671875 174.023438 C 277.335938 173.6875 277.074219 173.300781 276.894531 172.859375 C 276.710938 172.421875 276.621094 171.964844 276.621094 171.488281 C 276.621094 171.015625 276.710938 170.558594 276.894531 170.117188 C 277.074219 169.679688 277.335938 169.292969 277.671875 168.957031 C 278.003906 168.621094 278.394531 168.359375 278.832031 168.179688 C 279.269531 167.996094 279.726562 167.90625 280.203125 167.90625 C 280.675781 167.90625 281.132812 167.996094 281.570312 168.179688 C 282.011719 168.359375 282.398438 168.621094 282.734375 168.957031 Z M 282.734375 168.957031 " fill-opacity="1" fill-rule="nonzero"/><path fill="#00bf63" d="M 252.171875 100.4375 C 252.460938 100.558594 252.734375 100.703125 252.992188 100.875 C 253.25 101.050781 253.488281 101.246094 253.710938 101.464844 C 253.929688 101.6875 254.125 101.925781 254.300781 102.183594 C 254.472656 102.445312 254.617188 102.71875 254.738281 103.003906 C 254.855469 103.292969 254.945312 103.589844 255.007812 103.894531 C 255.066406 104.199219 255.097656 104.507812 255.097656 104.820312 C 255.097656 105.132812 255.066406 105.441406 255.007812 105.746094 C 254.945312 106.050781 254.855469 106.347656 254.738281 106.636719 C 254.617188 106.921875 254.472656 107.195312 254.300781 107.457031 C 254.125 107.714844 253.929688 107.953125 253.710938 108.175781 C 253.488281 108.394531 253.25 108.59375 252.992188 108.765625 C 252.734375 108.9375 252.460938 109.085938 252.171875 109.203125 C 251.882812 109.324219 251.585938 109.414062 251.28125 109.472656 C 250.976562 109.535156 250.667969 109.5625 250.359375 109.5625 C 250.046875 109.5625 249.738281 109.535156 249.433594 109.472656 C 249.128906 109.414062 248.832031 109.324219 248.542969 109.203125 C 248.257812 109.085938 247.984375 108.9375 247.722656 108.765625 C 247.464844 108.59375 247.226562 108.394531 247.003906 108.175781 C 246.785156 107.953125 246.589844 107.714844 246.414062 107.457031 C 246.242188 107.195312 246.097656 106.921875 245.976562 106.636719 C 245.859375 106.347656 245.769531 106.050781 245.707031 105.746094 C 245.648438 105.441406 245.617188 105.132812 245.617188 104.820312 C 245.617188 104.507812 245.648438 104.199219 245.707031 103.894531 C 245.769531 103.589844 245.859375 103.292969 245.976562 103.003906 C 246.097656 102.71875 246.242188 102.445312 246.417969 102.183594 C 246.589844 101.925781 246.785156 101.6875 247.003906 101.464844 C 247.226562 101.246094 247.464844 101.050781 247.722656 100.875 C 247.984375 100.703125 248.257812 100.558594 248.542969 100.4375 C 248.832031 100.320312 249.128906 100.226562 249.433594 100.167969 C 249.738281 100.105469 250.046875 100.078125 250.359375 100.078125 C 250.667969 100.078125 250.976562 100.105469 251.28125 100.167969 C 251.585938 100.226562 251.882812 100.320312 252.171875 100.4375 Z M 252.171875 100.4375 " fill-opacity="1" fill-rule="nonzero"/><g clip-path="url(#e8c994700d)"><path fill="#00bf63" d="M 210.976562 147.34375 L 176.796875 159.910156 L 132.605469 143.671875 L 176.796875 127.355469 L 213.175781 140.734375 L 222.617188 140.734375 L 177.367188 124.09375 C 177.042969 123.929688 176.632812 123.929688 176.226562 124.09375 L 127.316406 142.125 C 126.667969 142.367188 126.257812 142.9375 126.257812 143.671875 C 126.257812 144.40625 126.667969 144.980469 127.316406 145.222656 L 147.417969 152.648438 L 147.417969 172.148438 C 147.417969 173.046875 147.417969 174.675781 159.871094 180.0625 C 162.71875 181.285156 172.238281 185.285156 176.554688 185.285156 C 180.949219 185.285156 190.632812 181.285156 193.480469 180.0625 C 206.09375 174.675781 206.09375 173.046875 206.09375 172.148438 L 206.09375 152.648438 L 220.417969 147.34375 C 220.417969 147.34375 210.976562 147.34375 210.976562 147.34375 Z M 202.839844 171.578125 C 200.152344 173.941406 181.761719 181.9375 176.554688 181.9375 C 171.507812 181.9375 153.359375 173.941406 150.671875 171.578125 L 150.671875 153.789062 L 176.226562 163.171875 C 176.390625 163.253906 176.632812 163.253906 176.796875 163.253906 C 176.960938 163.253906 177.203125 163.253906 177.367188 163.171875 L 202.921875 153.789062 Z M 202.839844 171.578125 " fill-opacity="1" fill-rule="nonzero"/></g><g clip-path="url(#db5e73042b)"><path fill="#00bf63" d="M 230.265625 173.535156 C 230.019531 172.472656 229.777344 171.332031 229.613281 170.269531 L 229.207031 167.007812 L 228.636719 163.746094 C 228.394531 162.519531 228.230469 161.378906 227.988281 160.15625 C 229.289062 159.746094 230.265625 158.523438 230.265625 157.054688 C 230.265625 155.503906 229.207031 154.199219 227.742188 153.871094 C 227.824219 153.707031 227.988281 153.628906 228.066406 153.464844 L 228.554688 152.8125 C 228.800781 152.566406 228.554688 152.320312 228.636719 152.160156 L 228.636719 144.082031 C 228.636719 143.183594 227.90625 142.449219 227.011719 142.449219 L 200.96875 142.449219 C 196.65625 142.53125 192.261719 142.285156 187.945312 142.777344 C 185.261719 143.019531 182.574219 143.265625 179.808594 143.511719 C 179.402344 142.859375 178.179688 142.367188 176.714844 142.367188 C 174.925781 142.367188 173.460938 143.101562 173.460938 144 C 173.460938 144.898438 174.925781 145.632812 176.714844 145.632812 C 178.179688 145.632812 179.320312 145.140625 179.808594 144.488281 C 182.492188 144.734375 185.179688 145.058594 187.945312 145.222656 C 192.261719 145.792969 196.65625 145.550781 200.96875 145.550781 L 225.382812 145.550781 L 225.382812 151.996094 C 225.464844 152.242188 225.21875 152.484375 225.464844 152.648438 L 225.953125 153.300781 C 226.035156 153.464844 226.195312 153.546875 226.277344 153.707031 C 224.8125 154.035156 223.753906 155.339844 223.753906 156.890625 C 223.753906 158.359375 224.730469 159.582031 226.035156 159.992188 C 225.789062 161.214844 225.546875 162.355469 225.382812 163.582031 L 224.8125 166.84375 L 224.40625 170.109375 C 224.242188 171.167969 224 172.3125 223.753906 173.371094 C 223.511719 174.433594 223.511719 175.574219 223.753906 176.636719 C 223.917969 177.695312 224.242188 178.839844 224.730469 179.898438 C 225.21875 180.960938 225.789062 182.101562 226.683594 183.164062 L 227.335938 183.164062 C 228.230469 182.101562 228.882812 180.960938 229.289062 179.898438 C 229.777344 178.839844 230.019531 177.695312 230.265625 176.636719 C 230.507812 175.738281 230.507812 174.675781 230.265625 173.535156 Z M 230.265625 173.535156 " fill-opacity="1" fill-rule="nonzero"/></g><g clip-path="url(#476e570ad5)"><path fill="#00bf63" d="M 218.953125 203.394531 C 218.21875 202.335938 216.753906 201.355469 215.535156 201.113281 C 182.003906 193.769531 138.464844 177.941406 138.058594 177.859375 C 137.976562 177.859375 137.816406 177.777344 137.734375 177.777344 C 137.570312 177.777344 132.851562 178.265625 131.140625 183.898438 C 130.492188 186.179688 130.246094 190.503906 133.664062 192.871094 C 132.933594 193.199219 131.957031 193.6875 130.898438 193.933594 C 130.574219 194.011719 130.328125 194.339844 130.328125 194.746094 C 130.328125 195.15625 130.652344 195.480469 130.980469 195.480469 C 131.140625 195.480469 145.140625 198.011719 160.765625 202.90625 L 146.847656 207.3125 L 154.417969 207.800781 L 154.09375 211.636719 L 163.207031 207.3125 L 160.765625 214.980469 L 165.890625 213.675781 L 170.042969 216.53125 L 170.695312 206.25 C 186.480469 212.042969 200.886719 219.144531 208.210938 224.933594 C 208.375 225.015625 208.535156 225.097656 208.699219 225.097656 C 208.863281 225.097656 209.023438 225.015625 209.1875 224.933594 C 209.1875 224.933594 212.769531 222.160156 215.535156 219.957031 C 215.617188 219.875 215.699219 219.796875 215.699219 219.714844 C 216.835938 218.734375 217.652344 217.429688 218.21875 216.125 C 220.09375 212.371094 221.230469 206.660156 218.953125 203.394531 Z M 132.6875 184.304688 C 133.910156 180.226562 136.921875 179.492188 137.734375 179.410156 C 139.363281 179.980469 151.160156 184.222656 166.625 189.199219 C 164.507812 189.933594 162.800781 191.8125 161.824219 193.769531 C 160.929688 195.480469 160.195312 197.847656 160.601562 199.96875 C 145.628906 194.910156 136.105469 192.382812 135.945312 192.300781 C 130.980469 190.34375 132.605469 184.550781 132.6875 184.304688 Z M 208.863281 223.304688 C 203.164062 218.898438 194.78125 214.574219 186.074219 210.65625 C 194.050781 213.675781 202.675781 217.183594 211.628906 221.019531 L 211.710938 221.019531 C 210.488281 222.078125 209.429688 222.894531 208.863281 223.304688 Z M 216.917969 215.554688 C 216.265625 217.019531 214.476562 219.714844 212.441406 219.46875 C 211.382812 219.386719 210.894531 217.917969 210.652344 217.019531 C 209.839844 214.164062 210.894531 210.167969 212.847656 208.046875 C 213.5 207.394531 214.476562 206.660156 215.289062 206.660156 C 215.699219 206.660156 216.023438 206.824219 216.347656 207.230469 C 217.570312 208.617188 216.835938 212.453125 215.699219 214.164062 C 215.210938 214.898438 214.476562 215.390625 213.824219 215.554688 C 213.417969 215.632812 213.09375 215.554688 212.847656 215.308594 C 212.359375 214.898438 212.117188 214.164062 212.199219 213.351562 C 212.28125 212.289062 212.847656 211.390625 213.5 211.066406 L 213.582031 211.066406 C 213.664062 211.148438 213.664062 211.390625 213.582031 211.71875 C 213.417969 212.125 213.746094 212.617188 214.152344 212.695312 C 214.558594 212.859375 215.046875 212.535156 215.128906 212.125 C 215.371094 211.148438 215.210938 210.25 214.558594 209.761719 C 214.3125 209.597656 213.664062 209.1875 212.6875 209.679688 C 211.546875 210.332031 210.652344 211.71875 210.488281 213.269531 C 210.328125 214.65625 210.816406 215.960938 211.710938 216.695312 C 212.359375 217.183594 213.175781 217.429688 213.988281 217.265625 C 215.128906 217.101562 216.265625 216.285156 217 215.144531 C 217 215.0625 217.082031 215.0625 217.082031 214.980469 C 217.082031 215.144531 217 215.390625 216.917969 215.554688 Z M 218.546875 208.945312 C 218.464844 207.882812 218.140625 206.90625 217.488281 206.25 C 216.835938 205.515625 216.105469 205.191406 215.210938 205.109375 C 215.210938 205.109375 215.210938 205.109375 215.128906 205.109375 C 213.417969 205.109375 212.035156 206.414062 211.464844 206.984375 C 209.105469 209.515625 207.964844 214.164062 208.863281 217.511719 C 208.941406 217.835938 209.023438 218.082031 209.105469 218.328125 C 195.109375 212.371094 182.003906 207.394531 170.9375 203.476562 C 170.207031 201.355469 171.183594 198.910156 172.160156 197.03125 C 173.214844 195.074219 174.925781 193.117188 177.121094 192.464844 C 189.410156 196.214844 202.921875 199.96875 215.128906 202.660156 C 215.941406 202.824219 217.082031 203.558594 217.570312 204.292969 C 218.382812 205.4375 218.707031 207.066406 218.546875 208.945312 Z M 218.546875 208.945312 " fill-opacity="1" fill-rule="nonzero"/></g><g clip-path="url(#6d7a73d654)"><path fill="#00bf63" d="M 178.34375 225.015625 L 182.503906 233.628906 L 191.808594 235.007812 L 185.074219 241.714844 L 186.671875 251.175781 L 178.34375 246.710938 L 170.015625 251.175781 L 171.605469 241.714844 L 164.875 235.007812 L 174.179688 233.628906 Z M 178.34375 225.015625 " fill-opacity="1" fill-rule="nonzero"/></g><g clip-path="url(#342e5417fb)"><path fill="#00bf63" d="M 178.28125 224.933594 L 182.445312 233.542969 L 191.75 234.925781 L 185.015625 241.632812 L 186.605469 251.09375 L 178.28125 246.628906 L 169.957031 251.09375 L 171.546875 241.632812 L 164.808594 234.925781 L 174.117188 233.542969 Z M 178.28125 224.933594 " fill-opacity="1" fill-rule="nonzero"/><path fill="#00bf63" d="M 178.28125 224.933594 L 182.445312 233.542969 L 191.75 234.925781 L 185.015625 241.632812 L 186.605469 251.09375 L 178.28125 246.628906 L 169.957031 251.09375 L 171.546875 241.632812 L 164.808594 234.925781 L 174.117188 233.542969 Z M 178.28125 224.933594 " fill-opacity="1" fill-rule="nonzero"/><path fill="#00bf63" d="M 178.28125 224.933594 L 182.445312 233.542969 L 191.75 234.925781 L 185.015625 241.632812 L 186.605469 251.09375 L 178.28125 246.628906 L 169.957031 251.09375 L 171.546875 241.632812 L 164.808594 234.925781 L 174.117188 233.542969 Z M 178.28125 224.933594 " fill-opacity="1" fill-rule="nonzero"/></g></svg>